<?xml version="1.0" encoding="utf-8"?>
<!-- Generator: Adobe Illustrator 17.0.0, SVG Export Plug-In . SVG Version: 6.00 Build 0)  -->
<!DOCTYPE svg PUBLIC "-//W3C//DTD SVG 1.1//EN" "http://www.w3.org/Graphics/SVG/1.1/DTD/svg11.dtd">
<svg version="1.1" xmlns="http://www.w3.org/2000/svg" xmlns:xlink="http://www.w3.org/1999/xlink" x="0px" y="0px"
	 width="1190.55px" height="841.89px" viewBox="0 0 1190.55 841.89" enable-background="new 0 0 1190.55 841.89"
	 xml:space="preserve">
<g id="_x32_Dit__x5F_back">
	<path fill="#FFFFFF" stroke="#FFFFFF" stroke-width="78" stroke-miterlimit="10" d="M579.462,347.527v121.978
		c0,0,40.659,7.714,39.56-42.846S610.231,340,610.231,340L579.462,347.527z"/>
	<path fill="#FFFFFF" stroke="#FFFFFF" stroke-miterlimit="10" d="M386.055,419.143l-57.143-52.934
		c0,0,58.242-131.868,109.89-38.462S386.055,419.143,386.055,419.143z"/>
	<rect x="715.527" y="360" fill="#FFFFFF" stroke="#FFFFFF" stroke-width="78" stroke-miterlimit="10" width="40" height="171"/>
	<rect x="715.527" y="279" fill="#FFFFFF" stroke="#FFFFFF" stroke-width="78" stroke-miterlimit="10" width="40" height="43"/>
	<rect x="809.527" y="322" fill="#FFFFFF" stroke="#FFFFFF" stroke-width="78" stroke-miterlimit="10" width="56" height="40"/>
	<path fill="#FFFFFF" stroke="#FFFFFF" stroke-width="78" stroke-miterlimit="10" d="M864.476,532
		c-4.359,0-38.556-0.695-59.799-21.88c-10.565-10.536-16.149-24.409-16.149-40.12V279h40v191c0,6.571,2.349,9.757,4.395,11.798
		c8.513,8.488,26.925,10.202,31.501,10.202c0.018,0,0.033,0,0.05,0l0.109,40C864.549,532,864.513,532,864.476,532z"/>
	<path fill="#FFFFFF" stroke="#FFFFFF" stroke-width="78" stroke-miterlimit="10" d="M591.527,531h-276v-20
		c0-65.252,45.825-80.537,79.284-91.698c32.901-10.974,48.716-17.59,48.716-47.802c0-28.397-23.103-51.5-51.5-51.5
		c-14.908,0-29.076,6.458-38.874,17.718l-30.177-26.256C340.374,291.468,365.542,280,392.027,280c50.453,0,91.5,41.047,91.5,91.5
		c0,60.377-43.96,75.04-76.059,85.747c-27.042,9.02-43.257,15.348-49.269,33.753h233.328c24.046,0,50-20.646,50-54v-76
		c0-21.981-25.262-42-53-42h-32v137h-40V279h72c22.937,0,46.101,8.341,63.554,22.886c18.714,15.594,29.446,37.141,29.446,59.114v76
		c0,25.641-9.534,49.481-26.848,67.131C637.929,521.206,614.911,531,591.527,531z"/>
</g>
<g id="t_1_">
	<line fill="none" stroke="#000000" stroke-width="40" stroke-miterlimit="10" x1="809.527" y1="340" x2="865.527" y2="340"/>
</g>
<g id="t">
	<path fill="none" stroke="#000000" stroke-width="40" stroke-miterlimit="10" d="M864.527,510c0,0-56,0.154-56-42V277"/>
</g>
<g id="i_1_">
	<line fill="none" stroke="#000000" stroke-width="40" stroke-miterlimit="10" x1="735.527" y1="358" x2="735.527" y2="529"/>
</g>
<g id="i">
	<line fill="none" stroke="#000000" stroke-width="40" stroke-miterlimit="10" x1="735.527" y1="320" x2="735.527" y2="277"/>
</g>
<g id="_x32_D">
	<path fill="none" stroke="#000000" stroke-width="40" stroke-miterlimit="10" d="M338.066,324.59
		c13.109-15.066,32.423-24.59,53.962-24.59c39.488,0,71.5,32,71.5,71.5c0,93.5-128,39.5-128,139.5h152.5c0,0,66.5,0,103.5,0
		s70-31,70-74s0-42,0-76s-35-62-73-62h-52v157"/>
</g>
</svg>
