<?xml version="1.0" encoding="utf-8"?>
<!-- Generator: Adobe Illustrator 17.0.0, SVG Export Plug-In . SVG Version: 6.00 Build 0)  -->
<!DOCTYPE svg PUBLIC "-//W3C//DTD SVG 1.1//EN" "http://www.w3.org/Graphics/SVG/1.1/DTD/svg11.dtd">
<svg version="1.1" id="Группа_2_1_" xmlns="http://www.w3.org/2000/svg" xmlns:xlink="http://www.w3.org/1999/xlink" x="0px"
	 y="0px" width="902px" height="470px" viewBox="0 0 902 470" enable-background="new 0 0 902 470" xml:space="preserve">
<g id="Эллипс_1_копия">
	<g>
		<path fill-rule="evenodd" clip-rule="evenodd" fill="#d3dbe1" d="M902,227.787V61.629h-52.962V0H581.342v44.352
			c-17.012-13.941-36.394-24.885-57.637-32.544C501.973,3.973,479.472,0,456.823,0H299.356v48.992
			C266.509,19.437,223.093,1.433,175.553,1.433c-53.672,0-104.665,23.258-139.904,63.812L0,106.27l40.978,35.7l43.194,37.63
			l30.05,26.179l12.306,11.115c-18.858,7.851-38.959,18.397-57.077,33.91c-18.26,15.634-32.419,34.542-42.086,56.2
			c-10.432,23.374-15.721,50.262-15.721,79.918V470h449.473c43.896,0,87.052-16.718,120.224-46.233v43.365h166.069V441.4
			c15.211,9.512,32.676,16.664,52.226,21.366c21.772,5.235,39.739,5.8,46.454,5.8h54.705l-0.149-54.56l-0.156-57.328l-0.147-54.266
			h-51.306v-74.625H902z M589.952,280.851c0,36.742-13.647,70.904-38.428,96.194c-23.975,24.468-56.921,38.503-90.391,38.503H66.091
			v-28.659c0-93.502,65.59-115.405,113.481-131.398c47.092-15.725,69.728-25.205,69.728-68.497
			c0-40.691-33.068-73.797-73.713-73.797c-21.338,0-41.618,9.254-55.64,25.389l-43.193-37.622
			c24.9-28.651,60.923-45.084,98.833-45.084c72.214,0,130.965,58.818,130.965,131.114c0,86.517-62.921,107.528-108.864,122.87
			c-38.705,12.925-61.915,21.994-70.52,48.367h333.966c34.418,0,71.566-29.584,71.566-77.379V171.947
			c0-31.498-36.158-60.184-75.86-60.184h-45.802v196.313h-57.253V54.446H456.84c32.829,0,65.984,11.953,90.965,32.794
			c26.785,22.346,42.147,53.221,42.147,84.707V280.851z M693.007,412.682h-57.253V170.514h57.253V412.682z M693.007,116.063h-57.253
			V54.446h57.253V116.063z M847.589,173.38H794.63v151.892c0,9.416,3.362,13.98,6.291,16.904
			c12.184,12.165,38.54,14.621,45.089,14.621h0.07l0.157,57.318h-0.152c-6.24,0-55.187-0.996-85.592-31.353
			c-15.122-15.098-23.115-34.978-23.115-57.49V54.446h57.253v61.617h52.959V173.38z"/>
	</g>
</g>
<g id="Эллипс_1">
	<g>
		<path fill-rule="evenodd" clip-rule="evenodd" fill="transparent" d="M547.805,87.24c-24.981-20.841-58.136-32.794-90.965-32.794
			H353.785v253.631h57.253V111.764h45.802c39.702,0,75.86,28.686,75.86,60.184v108.904c0,47.795-37.148,77.379-71.566,77.379
			H127.168c8.605-26.373,31.815-35.442,70.52-48.367c45.943-15.342,108.864-36.353,108.864-122.87
			c0-72.296-58.751-131.114-130.965-131.114c-37.91,0-73.933,16.433-98.833,45.084l43.193,37.622
			c14.022-16.135,34.303-25.389,55.64-25.389c40.645,0,73.713,33.105,73.713,73.797c0,43.292-22.636,52.772-69.728,68.497
			C131.68,271.484,66.091,293.386,66.091,386.889v28.659h395.043c33.47,0,66.416-14.034,90.391-38.503
			c24.78-25.29,38.428-59.452,38.428-96.194V171.947C589.952,140.46,574.59,109.586,547.805,87.24z M635.754,412.682h57.253V170.514
			h-57.253V412.682z M847.589,173.38v-57.318H794.63V54.446h-57.253v270.826c0,22.512,7.993,42.392,23.115,57.49
			c30.405,30.356,79.352,31.353,85.592,31.353c0.054,0,0.105,0,0.152,0l-0.157-57.318c-0.024,0-0.047,0-0.07,0
			c-6.549,0-32.905-2.456-45.089-14.621c-2.929-2.924-6.291-7.488-6.291-16.904V173.38H847.589z M635.754,116.063h57.253V54.446
			h-57.253V116.063z"/>
	</g>
</g>
</svg>
