<?xml version="1.0" encoding="utf-8"?>
<!-- Generator: Adobe Illustrator 17.0.0, SVG Export Plug-In . SVG Version: 6.00 Build 0)  -->
<!DOCTYPE svg PUBLIC "-//W3C//DTD SVG 1.1//EN" "http://www.w3.org/Graphics/SVG/1.1/DTD/svg11.dtd">
<svg version="1.1" id="Layer_1" xmlns="http://www.w3.org/2000/svg" xmlns:xlink="http://www.w3.org/1999/xlink" x="0px" y="0px"
	 width="32px" height="32px" fill="#d6d6d6" viewBox="0 0 32 32" enable-background="new 0 0 32 32" xml:space="preserve">
<g>
	
		<polyline fill="none" stroke="#FFFFFF" stroke-width="2" stroke-linecap="round" stroke-linejoin="round" stroke-miterlimit="10" points="
		649,137.999 675,137.999 675,155.999 661,155.999 	"/>
	
		<polyline fill="none" stroke="#FFFFFF" stroke-width="2" stroke-linecap="round" stroke-linejoin="round" stroke-miterlimit="10" points="
		653,155.999 649,155.999 649,141.999 	"/>
	
		<polyline fill="none" stroke="#FFFFFF" stroke-width="2" stroke-linecap="round" stroke-linejoin="round" stroke-miterlimit="10" points="
		661,156 653,162 653,156 	"/>
</g>
<g>
	<g>
		<path d="M29.018,15H2.983c-0.397,0-0.756,0.244-0.908,0.617c-0.152,0.374-0.068,0.804,0.213,1.09l11.789,12
			c0.384,0.391,1.005,0.391,1.389,0s0.384-1.023,0-1.414L5.354,17h23.664C29.561,17,30,16.552,30,16S29.561,15,29.018,15z"/>
	</g>
	<g>
		<path d="M14.772,3c-0.251,0-0.503,0.098-0.695,0.293l-7.86,8c-0.384,0.391-0.384,1.023,0,1.414s1.005,0.391,1.389,0l7.86-8
			c0.384-0.391,0.384-1.023,0-1.414C15.275,3.098,15.023,3,14.772,3z"/>
	</g>
</g>
</svg>
