<?xml version="1.0" encoding="utf-8"?>
<!-- Generator: Adobe Illustrator 17.0.0, SVG Export Plug-In . SVG Version: 6.00 Build 0)  -->
<!DOCTYPE svg PUBLIC "-//W3C//DTD SVG 1.1//EN" "http://www.w3.org/Graphics/SVG/1.1/DTD/svg11.dtd">
<svg version="1.1" id="Layer_1" xmlns="http://www.w3.org/2000/svg" xmlns:xlink="http://www.w3.org/1999/xlink" x="0px" y="0px"
	 width="32px" height="32px" fill="#FFFFFF"  viewBox="0 0 32 32" enable-background="new 0 0 32 32" xml:space="preserve">
<g>
	
		<polyline fill="none" stroke="#FFFFFF" stroke-width="2" stroke-linecap="round" stroke-linejoin="round" stroke-miterlimit="10" points="
		649,137.999 675,137.999 675,155.999 661,155.999 	"/>
	
		<polyline fill="none" stroke="#FFFFFF" stroke-width="2" stroke-linecap="round" stroke-linejoin="round" stroke-miterlimit="10" points="
		653,155.999 649,155.999 649,141.999 	"/>
	
		<polyline fill="none" stroke="#FFFFFF" stroke-width="2" stroke-linecap="round" stroke-linejoin="round" stroke-miterlimit="10" points="
		661,156 653,162 653,156 	"/>
</g>
<g>
	<g>
		<path d="M15,2.982v26.035c0,0.397,0.244,0.756,0.617,0.908c0.374,0.152,0.804,0.068,1.09-0.213l12-11.789
			c0.391-0.384,0.391-1.005,0-1.389c-0.391-0.384-1.023-0.384-1.414,0L17,26.646V2.982C17,2.439,16.552,2,16,2S15,2.439,15,2.982z"
			/>
	</g>
	<g>
		<path d="M3,17.228c0,0.251,0.098,0.503,0.293,0.695l8,7.86c0.391,0.384,1.023,0.384,1.414,0s0.391-1.005,0-1.389l-8-7.86
			c-0.391-0.384-1.023-0.384-1.414,0C3.098,16.725,3,16.977,3,17.228z"/>
	</g>
</g>
</svg>
