<?xml version="1.0" encoding="utf-8"?>
<!-- Generator: Adobe Illustrator 17.0.0, SVG Export Plug-In . SVG Version: 6.00 Build 0)  -->
<!DOCTYPE svg PUBLIC "-//W3C//DTD SVG 1.1//EN" "http://www.w3.org/Graphics/SVG/1.1/DTD/svg11.dtd">
<svg version="1.1" xmlns="http://www.w3.org/2000/svg" xmlns:xlink="http://www.w3.org/1999/xlink" x="0px" y="0px"
	 width="38.375px" height="57.938px" fill="#7d7e81" viewBox="0 0 38.375 57.938" enable-background="new 0 0 38.375 57.938" xml:space="preserve">
<g id="Прямоугольник_2_1_" enable-background="new    ">
	<g id="Прямоугольник_2">
		<g>
			<path d="M19.187,3c8.926,0,16.188,7.262,16.188,16.188V38.75c0,8.926-7.262,16.187-16.188,16.187C10.262,54.938,3,47.676,3,38.75
				V19.188C3,10.262,10.262,3,19.187,3 M19.187,0C8.59,0,0,8.591,0,19.188V38.75c0,10.597,8.59,19.187,19.187,19.187
				c10.597,0,19.188-8.59,19.188-19.187V19.188C38.375,8.591,29.784,0,19.187,0L19.187,0z"/>
		</g>
	</g>
</g>
<g id="Эллипс_1_1_" enable-background="new    ">
	<g id="Эллипс_1">
		<g>
			<circle fill-rule="evenodd" clip-rule="evenodd" cx="20" cy="19.938" r="3"/>
		</g>
	</g>
</g>
</svg>
