<?xml version="1.0" encoding="utf-8"?>
<!-- Generator: Adobe Illustrator 17.0.0, SVG Export Plug-In . SVG Version: 6.00 Build 0)  -->
<!DOCTYPE svg PUBLIC "-//W3C//DTD SVG 1.1//EN" "http://www.w3.org/Graphics/SVG/1.1/DTD/svg11.dtd">
<svg version="1.1" id="Слой_1" xmlns="http://www.w3.org/2000/svg" xmlns:xlink="http://www.w3.org/1999/xlink" x="0px" y="0px"
	 width="572.5px" height="126.5px" viewBox="0.001 -231 572.5 126.5" enable-background="new 0.001 -231 572.5 126.5"
	 xml:space="preserve">
<g id="Фигура_2_1_" enable-background="new    ">
	<g id="Фигура_2">
		<g>
			<path fill="#909090" d="M639.73,4.079l-146.876,94.92H1.003L1,100h492l0.001-0.5l0.271,0.42l147-95L639.73,4.079z
				 M568.576-107.238l0.851-0.525l-76-123l-0.425,0.263l0.001-0.5h-493l-0.002,1h492.722L568.576-107.238z"/>
		</g>
	</g>
</g>
<g id="Эллипс_2_1_" enable-background="new    ">
	<g id="Эллипс_2">
		<g>
			<path fill="#909090" d="M567.501-114.5c-2.485,0-4.5,2.015-4.5,4.5s2.015,4.5,4.5,4.5s4.5-2.015,4.5-4.5
				S569.986-114.5,567.501-114.5z M641.501,0c-2.485,0-4.5,2.015-4.5,4.5s2.015,4.5,4.5,4.5s4.5-2.015,4.5-4.5S643.986,0,641.501,0z
				"/>
		</g>
	</g>
</g>
</svg>
