<?xml version="1.0" encoding="utf-8"?>
<!-- Generator: Adobe Illustrator 17.0.0, SVG Export Plug-In . SVG Version: 6.00 Build 0)  -->
<!DOCTYPE svg PUBLIC "-//W3C//DTD SVG 1.1//EN" "http://www.w3.org/Graphics/SVG/1.1/DTD/svg11.dtd">
<svg version="1.1" xmlns="http://www.w3.org/2000/svg" xmlns:xlink="http://www.w3.org/1999/xlink" x="0px" y="0px"
	 width="572.001px" height="126.501px" viewBox="0 0 572.001 126.501" enable-background="new 0 0 572.001 126.501"
	 xml:space="preserve">
<g id="Фигура_2_1_" enable-background="new    ">
	<g id="Фигура_2">
		<g>
			<path fill-rule="evenodd" clip-rule="evenodd" fill="#909090" d="M639.73,236.08L492.853,331L0.002,330L0,331l493,1l0.001-0.5
				l0.271,0.42l147-95L639.73,236.08z M568.576,124.763l0.851-0.525l-76-123L493.001,1.5l0.001-0.5l-493-1L0,1l492.722,1
				L568.576,124.763z"/>
		</g>
	</g>
</g>
<g id="Эллипс_2_1_" enable-background="new    ">
	<g id="Эллипс_2">
		<g>
			<path fill-rule="evenodd" clip-rule="evenodd" fill="#909090" d="M567.501,117.501c-2.485,0-4.5,2.015-4.5,4.5s2.015,4.5,4.5,4.5
				c2.485,0,4.5-2.015,4.5-4.5S569.986,117.501,567.501,117.501z M641.501,232.001c-2.485,0-4.5,2.015-4.5,4.5s2.015,4.5,4.5,4.5
				c2.485,0,4.5-2.015,4.5-4.5S643.986,232.001,641.501,232.001z"/>
		</g>
	</g>
</g>
</svg>
